<?xml version="1.0" standalone="no"?>
<!DOCTYPE svg PUBLIC "-//W3C//DTD SVG 20010904//EN" "http://www.w3.org/TR/2001/REC-SVG-20010904/DTD/svg10.dtd">
<svg xmlns="http://www.w3.org/2000/svg" version="1.0" width="700.000000pt" height="700.000000pt" viewBox="0 0 700.000000 700.000000" preserveAspectRatio="xMidYMid meet">
  <g transform="translate(0.000000,700.000000) scale(0.100000,-0.100000)" fill="#000000" stroke="none">
    <path d="M3355 6124 c-16 -2 -66 -9 -110 -15 -257 -34 -542 -148 -764 -307 l-94 -67 556 -3 c307 -1 807 -1 1114 0 l556 3 -94 67 c-216 154 -471 259 -739 304 -84 15 -367 26 -425 18z"/>
    <path d="M2296 5649 c-260 -242 -442 -572 -517 -934 -19 -93 -23 -145 -25 -337 l-2 -227 -103 -70 c-664 -446 -943 -1284 -679 -2036 262 -748 1008 -1234 1793 -1167 230 20 430 74 634 172 l103 50 102 -49 c504 -242 1053 -240 1553 4 650 318 1043 1033 964 1753 -57 522 -336 984 -768 1273 l-103 70 -2 227 c-2 191 -6 244 -25 336 -75 362 -258 693 -517 935 l-76 71 -1128 0 -1128 0 -76 -71z"/>
  </g>
</svg>
